{"title":"Artificial.Intelligence.AI.2001.Blu-ray.720p.DTS.x264-SHiNE","uid":6474186,"size":6940604380,"categoryP":"video","categoryS":"hd___movies","magnet":"?xt=urn:btih:ccbba5eac1cd178a841758fc1c8004847e8fd2b7&amp;dn=Artificial.Intelligence.AI.2001.Blu-ray.720p.DTS.x264-SHiNE&amp;tr=udp%3A%2F%2Ftracker.openbittorrent.com%3A80&amp;tr=udp%3A%2F%2Fopen.demonii.com%3A1337&amp;tr=udp%3A%2F%2Ftracker.coppersurfer.tk%3A6969&amp;tr=udp%3A%2F%2Fexodus.desync.com%3A6969","seeders":0,"leechers":1,"uploader":"SHiNE14","files":2,"time":1308257228,"description":"General:\n                                                                                                                                   \nName                             : Artificial.Intelligence.AI.2001.Blu-ray.720p.DTS.x264-SHiNNE.mkv\nFormat                           : Matroska                                                                                                \nFile size                        : 6.46 GiB                                                                                                \nDuration                         : 2h 25mn                                                                                                 \nOverall bit rate                 : 6 344 Kbps                                                                                              \nSource file                      : Artificial.Intelligence.AI.2001.1080p.BluRay.x264-Japhson                                                                                                                                                                                                                                                       \n\n\n                                                                                                                                           \nVideo:\n                                                                                                                                     \nID                               : 1                                                                                                       \nFormat                           : AVC                                                                                                     \nFormat/Info                      : Advanced Video Codec                                                                                    \nFormat profile                   : &lt;a class=&quot;__cf_email__&quot; href=&quot;/cdn-cgi/l/email-protection&quot; data-cfemail=&quot;e0ad81898ea0acd3ced1&quot;&gt;[email&amp;#160;protected]&lt;/a&gt;&lt;script cf-hash='f9e31' type=&quot;text/javascript&quot;&gt;\n/* &lt;![CDATA[ */!function(){try{var t=&quot;currentScript&quot;in document?document.currentScript:function(){for(var t=document.getElementsByTagName(&quot;script&quot;),e=t.length;e--;)if(t[e].getAttribute(&quot;cf-hash&quot;))return t[e]}();if(t&amp;&amp;t.previousSibling){var e,r,n,i,c=t.previousSibling,a=c.getAttribute(&quot;data-cfemail&quot;);if(a){for(e=&quot;&quot;,r=parseInt(a.substr(0,2),16),n=2;a.length-n;n+=2)i=parseInt(a.substr(n,2),16)^r,e+=String.fromCharCode(i);e=document.createTextNode(e),c.parentNode.replaceChild(e,c)}}}catch(u){}}();/* ]]&gt; */&lt;/script&gt;                                                                                               \nFormat settings, CABAC           : Yes                                                                                                     \nFormat settings, ReFrames        : 2 frames                                                                                                \nMuxing mode                      : Container profile=&lt;a class=&quot;__cf_email__&quot; href=&quot;/cdn-cgi/l/email-protection&quot; data-cfemail=&quot;287d464346475f46681b0619&quot;&gt;[email&amp;#160;protected]&lt;/a&gt;&lt;script cf-hash='f9e31' type=&quot;text/javascript&quot;&gt;\n/* &lt;![CDATA[ */!function(){try{var t=&quot;currentScript&quot;in document?document.currentScript:function(){for(var t=document.getElementsByTagName(&quot;script&quot;),e=t.length;e--;)if(t[e].getAttribute(&quot;cf-hash&quot;))return t[e]}();if(t&amp;&amp;t.previousSibling){var e,r,n,i,c=t.previousSibling,a=c.getAttribute(&quot;data-cfemail&quot;);if(a){for(e=&quot;&quot;,r=parseInt(a.substr(0,2),16),n=2;a.length-n;n+=2)i=parseInt(a.substr(n,2),16)^r,e+=String.fromCharCode(i);e=document.createTextNode(e),c.parentNode.replaceChild(e,c)}}}catch(u){}}();/* ]]&gt; */&lt;/script&gt;                                                                           \nCodec ID                         : V_MPEG4/ISO/AVC                                                                                         \nDuration                         : 2h 25mn                                                                                                 \nBit rate                         : 4 708 Kbps                                                                                              \nWidth                            : 1 280 pixels                                                                                            \nHeight                           : 720 pixels                                                                                              \nDisplay aspect ratio             : 16:9                                                                                                    \nFrame rate mode                  : Variable                                                                                                \nFrame rate                       : 23.976 fps                                                                                              \nResolution                       : 8 bits                                                                                                  \nColorimetry                      : 4:2:0                                                                                                   \nScan type                        : Progressive                                                                                             \nBits/(Pixel*Frame)               : 0.213                                                                                                   \nStream size                      : 4.80 GiB (74%)                                                                                          \nWriting library                  : x264 core                                                                                               \nColor primaries                  : BT.709-5, BT.1361, IEC 61966-2-4, SMPTE RP177                                                           \nTransfer characteristics         : BT.709-5, BT.1361                                                                                       \nMatrix coefficients              : BT.709-5, BT.1361, IEC 61966-2-4 709, SMPTE RP177                                                       \n\n\n                                                                                                                                           \nAudio:                                                                                                                                    \n\nID                               : 2                                                                                                       \nFormat                           : DTS                                                                                                     \nFormat/Info                      : Digital Theater Systems                                                                                 \nFormat profile                   : ES                                                                                                      \nCodec ID                         : A_DTS                                                                                                   \nDuration                         : 2h 25mn                                                                                                 \nBit rate mode                    : Constant                                                                                                \nBit rate                         : 1 510 Kbps                                                                                              \nChannel(s)                       : 6 channels                                                                                              \nChannel positions                : Front: L C R, Side: L R, LFE                                                                            \nSampling rate                    : 48.0 KHz                                                                                                \nResolution                       : 24 bits                                                                                                 \nStream size                      : 1.54 GiB (24%)","torrent":{"xt":"urn:btih:ccbba5eac1cd178a841758fc1c8004847e8fd2b7","amp;dn":"Artificial.Intelligence.AI.2001.Blu-ray.720p.DTS.x264-SHiNE","amp;tr":["udp%3A%2F%2Ftracker.openbittorrent.com%3A80","udp%3A%2F%2Fopen.demonii.com%3A1337","udp%3A%2F%2Ftracker.coppersurfer.tk%3A6969","udp%3A%2F%2Fexodus.desync.com%3A6969"],"infoHash":"ccbba5eac1cd178a841758fc1c8004847e8fd2b7","infoHashBuffer":{"type":"Buffer","data":[204,187,165,234,193,205,23,138,132,23,88,252,28,128,4,132,126,143,210,183]},"announce":[],"urlList":[]}}